<svg width="8" height="7" viewBox="0 0 8 7" fill="none" xmlns="http://www.w3.org/2000/svg">
<path fill-rule="evenodd" clip-rule="evenodd" d="M7.60904 1.06909C7.93903 1.34408 7.98361 1.83452 7.70862 2.16451L4.91021 5.5226C4.90062 5.53412 4.89103 5.54562 4.88147 5.5571C4.65157 5.83309 4.4304 6.09859 4.2196 6.29034C3.98346 6.50513 3.66777 6.71562 3.24045 6.73501C2.81313 6.75439 2.47968 6.57335 2.22507 6.38081C1.99777 6.20894 1.75347 5.96455 1.49953 5.71051C1.48896 5.69994 1.47838 5.68935 1.46778 5.67875L0.33892 4.5499C0.0351792 4.24616 0.0351792 3.75369 0.33892 3.44995C0.642661 3.14621 1.13512 3.14621 1.43886 3.44995L2.56772 4.57881C2.86558 4.87667 3.03278 5.04137 3.16329 5.14005C3.16498 5.14133 3.16664 5.14258 3.16827 5.1438C3.16979 5.14244 3.17133 5.14104 3.1729 5.13961C3.29393 5.02952 3.44553 4.85036 3.7152 4.52676L6.51361 1.16867C6.7886 0.838677 7.27904 0.794091 7.60904 1.06909Z" fill="white"/>
</svg>
