<svg width="16" height="16" viewBox="0 0 16 16" fill="none" xmlns="http://www.w3.org/2000/svg">
  <mask id="mask0_348_561" style="mask-type:luminance" maskUnits="userSpaceOnUse" x="0" y="0" width="16" height="16">
  <path d="M0 0H16V16H0V0Z" fill="white"/>
  </mask>
  <g mask="url(#mask0_348_561)">
  <path d="M8.76212 7.74315C8.99231 7.97334 9.36557 7.97334 9.59576 7.74315C9.82598 7.51295 9.82598 7.1397 9.59576 6.90951C9.36557 6.67929 8.99231 6.67929 8.76212 6.90951C8.53193 7.1397 8.53193 7.51295 8.76212 7.74315Z" fill="white"/>
  <path d="M14.75 11.0469C14.75 12.0743 13.9105 12.9072 12.875 12.9072H3.12501C2.08947 12.9072 1.25001 12.0743 1.25001 11.0469V3.60573C1.25002 2.57832 2.08948 1.74545 3.12501 1.74545H12.875C13.9105 1.74545 14.75 2.57833 14.75 3.60573V11.0469ZM16 3.60573C16 1.89339 14.6009 0.505269 12.875 0.505264H3.12501C1.39912 0.505264 4.44537e-06 1.89338 0 3.60573V11.0469C0 12.7592 1.39912 14.1474 3.12501 14.1474H12.875C14.6009 14.1474 16 12.7592 16 11.0469V3.60573Z" fill="white"/>
  <path d="M2.52637 13.6V14.8632C2.52637 15.212 2.79029 15.4947 3.11584 15.4947C3.44139 15.4947 3.70531 15.212 3.70531 14.8632V13.6C3.70531 13.2512 3.44139 12.9684 3.11584 12.9684C2.79029 12.9684 2.52637 13.2512 2.52637 13.6Z" fill="white"/>
  <path d="M12.1263 13.6V14.8632C12.1263 15.212 12.428 15.4947 12.8 15.4947C13.1721 15.4947 13.4737 15.212 13.4737 14.8632V13.6C13.4737 13.2512 13.1721 12.9684 12.8 12.9684C12.428 12.9684 12.1263 13.2512 12.1263 13.6Z" fill="white"/>
  <path d="M2.52637 3.66316V4.92631C2.52637 5.27512 2.79029 5.5579 3.11584 5.5579C3.44139 5.5579 3.70531 5.27512 3.70531 4.92631V3.66316C3.70531 3.31435 3.44139 3.03158 3.11584 3.03158C2.79029 3.03158 2.52637 3.31435 2.52637 3.66316Z" fill="white"/>
  <path d="M11.0484 7.3263C11.0484 8.35879 10.2114 9.19577 9.17891 9.19577C8.14642 9.19577 7.30944 8.35879 7.30944 7.3263C7.30944 6.29382 8.14643 5.45683 9.17891 5.45683C10.2114 5.45684 11.0484 6.29382 11.0484 7.3263ZM12.2947 7.3263C12.2947 5.6055 10.8997 4.21053 9.17891 4.21053C7.45811 4.21053 6.06311 5.6055 6.06311 7.3263C6.06311 9.04711 7.4581 10.4421 9.17891 10.4421C10.8997 10.4421 12.2947 9.04711 12.2947 7.3263Z" fill="white"/>
  <path d="M8.58948 3.43158V4.69473C8.58948 5.04354 8.8534 5.32631 9.17895 5.32631C9.5045 5.32631 9.76842 5.04354 9.76842 4.69473V3.43158C9.76842 3.08277 9.5045 2.8 9.17895 2.8C8.8534 2.8 8.58948 3.08277 8.58948 3.43158Z" fill="white"/>
  <path d="M8.58948 9.89474V11.1579C8.58948 11.5067 8.8534 11.7895 9.17895 11.7895C9.5045 11.7895 9.76842 11.5067 9.76842 11.1579V9.89474C9.76842 9.54593 9.5045 9.26316 9.17895 9.26316C8.8534 9.26316 8.58948 9.54593 8.58948 9.89474Z" fill="white"/>
  <path d="M6.6902 6.65401C6.99236 6.82452 7.37874 6.72333 7.55319 6.428C7.72763 6.13266 7.6241 5.75503 7.32195 5.58452L6.22773 4.96703C5.92558 4.79653 5.53922 4.89772 5.36477 5.19305C5.19032 5.48838 5.29385 5.86604 5.59601 6.03655L6.6902 6.65401Z" fill="white"/>
  <path d="M12.1891 9.68559C12.4913 9.8561 12.8776 9.75491 13.0521 9.45958C13.2265 9.16425 13.123 8.78661 12.8209 8.6161L11.7266 7.99862C11.4245 7.82811 11.0381 7.9293 10.8637 8.22463C10.6892 8.51996 10.7928 8.89762 11.0949 9.06813L12.1891 9.68559Z" fill="white"/>
  <path d="M5.36477 9.45958C5.53922 9.75491 5.92557 9.8561 6.22773 9.68559L7.32195 9.06813C7.6241 8.89762 7.72763 8.51997 7.55318 8.22463C7.37873 7.9293 6.99236 7.82811 6.6902 7.99862L5.596 8.6161C5.29385 8.78661 5.19032 9.16425 5.36477 9.45958Z" fill="white"/>
  <path d="M10.8637 6.428C11.0381 6.72333 11.4245 6.82452 11.7266 6.65401L12.8208 6.03655C13.123 5.86604 13.2265 5.48839 13.0521 5.19305C12.8776 4.89772 12.4913 4.79653 12.1891 4.96704L11.0949 5.58452C10.7928 5.75503 10.6892 6.13266 10.8637 6.428Z" fill="white"/>
  <path d="M2.52637 9.89474V11.1579C2.52637 11.5067 2.79029 11.7895 3.11584 11.7895C3.44139 11.7895 3.70531 11.5067 3.70531 11.1579V9.89474C3.70531 9.54593 3.44139 9.26316 3.11584 9.26316C2.79029 9.26316 2.52637 9.54593 2.52637 9.89474Z" fill="white"/>
  </g>
</svg>
