<svg width="19" height="18" viewBox="0 0 19 18" fill="none" xmlns="http://www.w3.org/2000/svg">
  <path fill-rule="evenodd" clip-rule="evenodd" d="M7.75801 2.25H11.242C12.3889 2.24997 13.3263 2.24995 14.0665 2.35104C14.8411 2.45684 15.5103 2.68579 16.0431 3.22702C16.5743 3.76661 16.7974 4.44163 16.9008 5.2229C17 5.97244 17 6.92272 17 8.08969V9.91031C17 11.0773 17 12.0276 16.9008 12.7771C16.7974 13.5584 16.5743 14.2334 16.0431 14.773C15.5103 15.3142 14.8411 15.5432 14.0665 15.649C13.3263 15.75 12.3889 15.75 11.242 15.75H7.758C6.61112 15.75 5.67368 15.75 4.93354 15.649C4.1589 15.5432 3.48967 15.3142 2.9569 14.773C2.42574 14.2334 2.20256 13.5584 2.09916 12.7771C1.99996 12.0276 1.99998 11.0773 2 9.91032V8.08968C1.99998 6.92272 1.99996 5.97244 2.09916 5.2229C2.20256 4.44163 2.42574 3.76661 2.9569 3.22702C3.48967 2.68579 4.1589 2.45684 4.93354 2.35104C5.67369 2.24995 6.61113 2.24997 7.75801 2.25ZM5.13653 3.83724C4.53257 3.91973 4.23449 4.06737 4.02588 4.27929C3.81565 4.49286 3.66814 4.8005 3.58619 5.4197C3.50155 6.05928 3.5 6.90979 3.5 8.14286V9.85714C3.5 11.0902 3.50155 11.9407 3.58619 12.5803C3.66814 13.1995 3.81565 13.5071 4.02588 13.7207C4.23449 13.9326 4.53257 14.0803 5.13653 14.1628C5.76328 14.2484 6.59773 14.25 7.8125 14.25H11.1875C12.4023 14.25 13.2367 14.2484 13.8635 14.1628C14.4674 14.0803 14.7655 13.9326 14.9741 13.7207C15.1844 13.5071 15.3319 13.1995 15.4138 12.5803C15.4985 11.9407 15.5 11.0902 15.5 9.85714V8.14286C15.5 6.90979 15.4985 6.05928 15.4138 5.4197C15.3319 4.8005 15.1844 4.49286 14.9741 4.27929C14.7655 4.06737 14.4674 3.91973 13.8635 3.83724C13.2367 3.75164 12.4023 3.75 11.1875 3.75H7.8125C6.59773 3.75 5.76328 3.75164 5.13653 3.83724Z" fill="#31A2E6"/>
  <path fill-rule="evenodd" clip-rule="evenodd" d="M5 6C5 5.58579 5.33579 5.25 5.75 5.25H8C8.41421 5.25 8.75 5.58579 8.75 6C8.75 6.41421 8.41421 6.75 8 6.75H5.75C5.33579 6.75 5 6.41421 5 6Z" fill="#31A2E6"/>
  <path fill-rule="evenodd" clip-rule="evenodd" d="M14.7718 12.75C14.7645 12.75 14.7573 12.75 14.75 12.75L13.2282 12.75C13.014 12.75 12.8171 12.75 12.6518 12.7387C12.4741 12.7266 12.2788 12.699 12.0803 12.6168C11.6515 12.4392 11.3108 12.0985 11.1332 11.6697C11.051 11.4712 11.0234 11.2759 11.0113 11.0982C11 10.9329 11 10.736 11 10.5218V10.4782C11 10.264 11 10.0671 11.0113 9.90179C11.0234 9.72415 11.051 9.52881 11.1332 9.3303C11.3108 8.9015 11.6515 8.56083 12.0803 8.38321C12.2788 8.30099 12.4741 8.27338 12.6518 8.26125C12.8171 8.24997 13.014 8.24999 13.2282 8.25H14.7718C14.986 8.24999 15.1829 8.24997 15.3482 8.26125C15.5259 8.27338 15.7212 8.30099 15.9197 8.38321C16.3485 8.56083 16.6892 8.90151 16.8668 9.3303C16.949 9.52881 16.9766 9.72415 16.9887 9.90179C17 10.0671 17 10.264 17 10.4782C17 10.4855 17 10.4927 17 10.5C17 10.5073 17 10.5145 17 10.5218C17 10.736 17 10.9329 16.9887 11.0982C16.9766 11.2759 16.949 11.4712 16.8668 11.6697C16.6892 12.0985 16.3485 12.4392 15.9197 12.6168C15.7212 12.699 15.5259 12.7266 15.3482 12.7387C15.1829 12.75 14.986 12.75 14.7718 12.75ZM15.3487 11.2297C15.4075 11.2044 15.4544 11.1575 15.4797 11.0987C15.4816 11.0913 15.4877 11.0629 15.4922 10.9961C15.4996 10.8881 15.5 10.7432 15.5 10.5C15.5 10.2568 15.4996 10.1119 15.4922 10.0039C15.4877 9.93707 15.4816 9.90866 15.4797 9.90131C15.4544 9.84248 15.4075 9.79558 15.3487 9.7703C15.3413 9.76844 15.3129 9.76234 15.2461 9.75778C15.1381 9.75041 14.9932 9.75 14.75 9.75H13.25C13.0068 9.75 12.8619 9.75041 12.7539 9.75778C12.6871 9.76234 12.6587 9.76844 12.6513 9.7703C12.5925 9.79558 12.5456 9.84248 12.5203 9.90131C12.5184 9.90867 12.5123 9.93707 12.5078 10.0039C12.5004 10.1119 12.5 10.2568 12.5 10.5C12.5 10.7432 12.5004 10.8881 12.5078 10.9961C12.5123 11.0629 12.5184 11.0913 12.5203 11.0987C12.5456 11.1575 12.5925 11.2044 12.6513 11.2297C12.6587 11.2316 12.6871 11.2377 12.7539 11.2422C12.8619 11.2496 13.0068 11.25 13.25 11.25H14.75C14.9932 11.25 15.1381 11.2496 15.2461 11.2422C15.3129 11.2377 15.3413 11.2316 15.3487 11.2297Z" fill="#31A2E6"/>
</svg>
